<?xml version="1.0" encoding="iso-8859-1"?>
<!-- Uploaded to: SVG Repo, www.svgrepo.com, Generator: SVG Repo Mixer Tools -->
<svg version="1.1" xmlns="http://www.w3.org/2000/svg" xmlns:xlink="http://www.w3.org/1999/xlink" 
	 width="170" height="170"
	 viewBox="0 0 275.28 275.28" xml:space="preserve">
<g>
	<g>
		<g>
			<g id="XMLID_19_">
				<g>
					<polygon style="fill:#F47C6D;" points="170.528,153.968 115.1,186.159 114.914,122.056 					"/>
					<path style="fill:#C5CBCF;" d="M259.231,82.832v156.741H16.049V82.832H259.231z M190.605,160.877
						c2.479-1.456,3.997-4.09,3.997-6.971c-0.031-2.85-1.549-5.515-4.028-6.94l-79.718-45.73c-2.479-1.425-5.546-1.425-8.024,0.031
						c-2.479,1.425-3.997,4.09-3.966,6.94l0.217,91.894c0,2.881,1.549,5.515,4.028,6.94c1.239,0.713,2.634,1.053,3.997,1.053
						c1.394,0,2.788-0.341,4.028-1.084L190.605,160.877z"/>
					<path style="fill:#2D213F;" d="M275.28,27.683v219.914c0,4.43-3.594,8.024-8.024,8.024H8.024c-4.431,0-8.024-3.594-8.024-8.024
						V27.683c0-4.431,3.594-8.024,8.024-8.024h259.231C271.686,19.658,275.28,23.252,275.28,27.683z M259.231,239.573V82.832H16.049
						v156.741H259.231z M259.231,66.783V35.676H93.196H16.049v31.106h77.147L259.231,66.783L259.231,66.783z"/>
					<path style="fill:#2D213F;" d="M194.601,153.906c0,2.881-1.518,5.515-3.997,6.971l-79.47,46.133
						c-1.239,0.744-2.634,1.084-4.028,1.084c-1.363,0-2.757-0.341-3.997-1.053c-2.479-1.425-4.028-4.059-4.028-6.94l-0.217-91.894
						c-0.031-2.85,1.487-5.515,3.966-6.94c2.479-1.456,5.546-1.456,8.024-0.031l79.718,45.73
						C193.052,148.391,194.57,151.055,194.601,153.906z M115.1,186.159l55.428-32.191l-55.614-31.912L115.1,186.159z"/>
					<path style="fill:#2D213F;" d="M83.994,51.632c0-5.112,4.121-9.233,9.202-9.233c5.112,0,9.233,4.121,9.233,9.233
						c0,5.081-4.121,9.202-9.233,9.202C88.114,60.834,83.994,56.714,83.994,51.632z"/>
					<path style="fill:#454D5B;" d="M93.196,35.676H16.049v31.106h77.147h166.035V35.676H93.196z M41.269,60.834
						c-5.081,0-9.202-4.121-9.202-9.202c0-5.112,4.121-9.233,9.202-9.233c5.112,0,9.233,4.121,9.233,9.233
						C50.502,56.714,46.381,60.834,41.269,60.834z M67.449,60.834c-5.081,0-9.202-4.121-9.202-9.202
						c0-5.112,4.121-9.233,9.202-9.233s9.202,4.121,9.202,9.233C76.651,56.714,72.53,60.834,67.449,60.834z M93.196,60.834
						c-5.081,0-9.202-4.121-9.202-9.202c0-5.112,4.121-9.233,9.202-9.233c5.112,0,9.233,4.121,9.233,9.233
						C102.428,56.714,98.308,60.834,93.196,60.834z"/>
					<path style="fill:#2D213F;" d="M67.449,42.4c5.081,0,9.202,4.121,9.202,9.233c0,5.081-4.121,9.202-9.202,9.202
						c-5.081,0-9.202-4.121-9.202-9.202C58.247,46.52,62.368,42.4,67.449,42.4z"/>
					<path style="fill:#2D213F;" d="M41.269,42.4c5.112,0,9.233,4.121,9.233,9.233c0,5.081-4.121,9.202-9.233,9.202
						c-5.081,0-9.202-4.121-9.202-9.202C32.067,46.52,36.188,42.4,41.269,42.4z"/>
				</g>
			</g>
		</g>
		<path style="fill:#505967;" d="M102.425,51.524c0,0.037,0.012,0.071,0.012,0.108c0,2.017-0.672,3.867-1.781,5.385
			c-1.329,1.825-3.293,3.16-5.595,3.631c-0.601,0.124-1.221,0.186-1.856,0.186h-0.003h-0.003c-5.081,0-9.202-4.121-9.202-9.202
			c0-0.037,0.009-0.071,0.009-0.108h-7.355c0,0.037,0.009,0.071,0.009,0.108c0,5.081-4.121,9.202-9.202,9.202
			c-0.003,0-0.003,0-0.006,0h-0.003c-0.551,0-1.087-0.068-1.614-0.161c-4.331-0.765-7.609-4.511-7.609-9.038
			c0-0.037,0.009-0.071,0.009-0.108h-7.746c0,0.037,0.012,0.071,0.012,0.108c0,4.53-3.278,8.272-7.609,9.038
			c-0.527,0.093-1.06,0.161-1.614,0.161h-0.003h-0.003c-5.081,0-9.202-4.121-9.202-9.202c0-0.037,0.009-0.071,0.009-0.108h-7.492
			c-2.934,0-5.781,0.359-8.529,0.985v14.274h77.137h0.009h117.622c-8.458-9.351-20.65-15.259-34.251-15.259
			C176.576,51.524,102.425,51.524,102.425,51.524z"/>
		<path style="fill:#EAEEEF;" d="M47.502,217.436h131.57c24.154,0,43.732-19.578,43.732-43.732V97.756
			c0-5.23-0.908-10.237-2.51-14.924H16.058v125.845C25.26,214.201,35.989,217.436,47.502,217.436z M102.831,101.266
			c2.479-1.456,5.546-1.456,8.024-0.031l79.718,45.73c2.479,1.425,3.997,4.09,4.028,6.94c0,2.881-1.518,5.515-3.997,6.971
			l-79.47,46.133c-1.239,0.744-2.634,1.084-4.028,1.084c-1.363,0-2.757-0.341-3.997-1.053c-2.479-1.425-4.028-4.059-4.028-6.94
			l-0.217-91.894C98.834,105.356,100.352,102.692,102.831,101.266z"/>
	</g>
</g>
</svg>