<?xml version="1.0" encoding="iso-8859-1"?>
<!-- Uploaded to: SVG Repo, www.svgrepo.com, Generator: SVG Repo Mixer Tools -->
<svg version="1.1" id="Layer_1" xmlns="http://www.w3.org/2000/svg" xmlns:xlink="http://www.w3.org/1999/xlink" 
	 xml:space="preserve"
	 width="170" height="170" viewBox="0 0 280 280"
	 >
<g>
	<g>
		<g id="XMLID_28_">
			<g>
				<rect x="61.438" y="72.717" style="fill:#EAEEEF;" width="14.004" height="164.177"/>
				<rect x="194.508" y="72.717" style="fill:#EAEEEF;" width="14.035" height="164.177"/>
				<path style="fill:#454D5B;" d="M45.266,72.717v164.177H33.74c-9.698,0-17.598-7.715-17.598-17.195V89.912
					c0-9.481,7.901-17.195,17.598-17.195H45.266z"/>
				<path style="fill:#454D5B;" d="M256.566,89.912v129.786c0,9.481-7.901,17.195-17.598,17.195h-14.283V72.717h14.283
					C248.666,72.717,256.566,80.432,256.566,89.912z"/>
				<rect x="91.615" y="72.717" style="fill:#454D5B;" width="86.72" height="164.177"/>
				<path style="fill:#2D213F;" d="M272.708,89.912v129.786c0,18.187-15.119,32.965-33.74,32.965H33.74
					C15.119,252.663,0,237.885,0,219.698V89.912c0-18.187,15.119-32.965,33.74-32.965h45.482v-29c0-4.338,3.625-7.901,8.086-7.901
					h93.567c4.461,0,8.086,3.563,8.086,7.901v29h50.006C257.589,56.947,272.708,71.726,272.708,89.912z M256.566,219.698V89.912
					c0-9.481-7.901-17.195-17.598-17.195h-14.283v164.177h14.283C248.666,236.894,256.566,229.178,256.566,219.698z
					 M208.544,236.894V72.717h-14.035v164.177H208.544z M178.336,236.894V72.717h-86.72v164.177H178.336z M172.79,56.947V35.848
					H95.395v21.099H172.79z M75.443,236.894V72.717H61.438v164.177H75.443z M45.266,236.894V72.717H33.74
					c-9.698,0-17.598,7.715-17.598,17.195v129.786c0,9.481,7.901,17.195,17.598,17.195C33.74,236.894,45.266,236.894,45.266,236.894
					z"/>
			</g>
		</g>
		<path style="fill:#505967;" d="M45.266,105.806c-6.748,9.555-10.748,21.189-10.748,33.774v36.748
			c0,10.565,4.096,20.154,10.748,27.342V105.806z"/>
		<path style="fill:#505967;" d="M91.615,216.652h86.72V80.912H93.186c-0.53,0-1.044,0.065-1.571,0.081V216.652z"/>
		<path style="fill:#505967;" d="M224.685,80.912v135.741h0.617c11.941,0,22.843-4.365,31.264-11.556V90.328
			c-7.495-5.877-16.913-9.412-27.175-9.412h-4.706L224.685,80.912L224.685,80.912z"/>
	</g>
</g>
</svg>